<?xml version="1.0" encoding="UTF-8"?>
<!DOCTYPE svg PUBLIC "-//W3C//DTD SVG 1.1//EN" "http://www.w3.org/Graphics/SVG/1.1/DTD/svg11.dtd">
<!-- Creator: CorelDRAW 2020 (64-Bit) -->
<svg xmlns="http://www.w3.org/2000/svg" xml:space="preserve" width="150mm" height="297mm" version="1.1" style="shape-rendering:geometricPrecision; text-rendering:geometricPrecision; image-rendering:optimizeQuality; fill-rule:evenodd; clip-rule:evenodd"
viewBox="0 0 15000 29700"
 xmlns:xlink="http://www.w3.org/1999/xlink"
 xmlns:xodm="http://www.corel.com/coreldraw/odm/2003">
 <defs>
  <style type="text/css">
   <![CDATA[
    .fil0 {fill:black;fill-rule:nonzero}
   ]]>
  </style>
 </defs>
 <g id="Слой_x0020_1">
  <metadata id="CorelCorpID_0Corel-Layer"/>
  <polygon class="fil0" points="14985.82,1.92 9909.87,9186.81 9909.87,14647.53 5041.09,14647.53 5041.09,9186.81 -14.16,1.92 5538.32,1.92 7485.83,4521.14 9433.35,1.92 "/>
  <path class="fil0" d="M6702.25 15056.32c2462.68,0 4458.95,676.49 5988.8,2029.46 1529.85,1352.98 2294.78,3117.43 2294.78,5293.34 0,2161.98 -764.93,3922.94 -2294.78,5282.89 -1529.85,1359.95 -3526.12,2039.92 -5988.8,2039.92l-6716.42 0 0 -14645.61 6716.42 0zm-358.21 10251.93c1014.92,0 1820.89,-261.53 2417.91,-784.59 597.02,-523.06 895.52,-1237.9 895.52,-2144.54 0,-906.63 -298.5,-1621.47 -895.52,-2144.53 -597.02,-523.06 -1402.99,-784.59 -2417.91,-784.59l-1119.4 0 0 5858.25 1119.4 0z"/>
 </g>
</svg>
